<svg xmlns="http://www.w3.org/2000/svg" xmlns:v="https://svgstorm.com"
viewBox = "0 0 48 48"
width="48"
height="48">
<g fill="None" fill-opacity="0.0" stroke="#000000" stroke-opacity="0.00" stroke-width="0.3"><path d="
M 0.00 29.00 
C 0.63 27.47 2.25 25.47 3.00 24.00
C 2.92 24.15 4.07 21.73 4.00 22.00
C 3.88 21.53 4.02 20.50 4.00 20.00
C 3.72 12.58 8.33 6.12 15.00 3.00
C 17.28 2.14 20.27 1.58 22.00 0.00
L 0.00 0.00
L 0.00 29.00 Z"/>
</g>
<g fill="None" fill-opacity="0.0" stroke="#0E0C16" stroke-opacity="0.95" stroke-width="0.3"><path d="
M 15.00 3.00 
C 14.84 3.06 15.00 4.00 15.00 4.00
C 14.08 5.89 12.21 6.62 11.00 8.00
C 8.36 11.52 5.89 16.14 4.00 20.00
C 4.02 20.50 3.88 21.53 4.00 22.00
C 4.22 22.83 4.89 23.67 5.00 25.00
C 5.44 30.17 4.59 35.10 6.00 40.00
C 6.51 41.76 6.77 42.71 8.00 44.00
C 7.88 43.53 8.00 42.50 8.00 42.00
C 8.00 40.68 7.91 39.32 8.00 38.00
C 8.15 35.71 9.71 33.70 10.00 32.00
C 9.64 30.03 9.74 26.99 10.00 25.00
C 10.65 20.08 13.36 17.52 17.00 19.00
C 14.80 13.72 13.38 8.89 17.00 4.00
C 20.46 8.48 23.55 -0.71 30.00 0.00
L 22.00 0.00
C 20.27 1.58 17.28 2.14 15.00 3.00 Z"/>
</g>
<g fill="None" fill-opacity="0.0" stroke="#261D23" stroke-opacity="1.00" stroke-width="0.3"><path d="
M 10.00 25.00 
C 10.14 24.78 11.50 25.00 12.00 25.00
C 12.50 25.00 13.00 25.00 13.00 25.00
C 13.50 25.00 14.50 25.03 15.00 25.00
C 17.05 24.88 20.17 24.23 23.00 25.00
C 23.11 24.00 22.53 22.27 24.00 22.00
C 23.91 21.52 24.00 21.00 24.00 21.00
C 22.88 16.80 12.77 14.49 17.00 7.00
C 18.96 12.08 25.31 8.54 29.00 11.00
C 29.57 8.55 33.01 6.79 35.00 5.00
C 38.38 10.48 35.74 14.66 34.00 20.00
C 30.46 16.84 29.30 16.82 25.00 17.00
C 24.45 18.82 26.75 19.47 27.00 21.00
C 27.41 21.92 27.43 23.04 28.00 24.00
C 28.53 24.89 30.83 25.22 30.00 27.00
C 29.00 27.00 28.00 27.00 27.00 27.00
C 27.13 27.05 28.17 28.84 28.00 29.00
C 30.59 31.46 29.92 33.91 29.00 38.00
C 28.36 40.85 27.70 43.48 26.00 46.00
C 27.43 46.05 31.09 46.48 32.00 45.00
C 32.22 44.64 31.88 43.47 32.00 43.00
C 30.89 43.99 29.19 44.15 28.00 45.00
C 29.49 41.59 32.02 38.05 34.00 35.00
C 34.45 33.54 34.52 32.19 35.00 31.00
C 35.78 29.06 35.67 26.62 39.00 27.00
C 39.00 28.33 39.00 29.67 39.00 31.00
C 45.44 21.97 40.78 11.00 35.00 3.00
C 33.23 2.99 31.63 1.63 31.00 0.00
L 30.00 0.00
C 23.55 -0.71 20.46 8.48 17.00 4.00
C 13.38 8.89 14.80 13.72 17.00 19.00
C 13.36 17.52 10.65 20.08 10.00 25.00
M 14.00 19.00 
C 15.79 20.79 13.23 18.23 14.00 19.00
M 14.00 22.00 
C 14.61 22.61 12.34 20.34 14.00 22.00 Z"/>
</g>
<g fill="None" fill-opacity="0.0" stroke="#000000" stroke-opacity="0.02" stroke-width="0.3"><path d="
M 35.00 3.00 
C 33.77 1.40 36.52 3.36 36.00 3.00
C 36.34 3.24 37.00 3.00 37.00 3.00
C 42.61 5.75 44.47 11.49 45.00 17.00
C 45.82 19.90 47.71 24.69 48.00 28.00
L 48.00 0.00
L 31.00 0.00
C 31.63 1.63 33.23 2.99 35.00 3.00 Z"/>
</g>
<g fill="None" fill-opacity="0.0" stroke="#1A1E1E" stroke-opacity="0.24" stroke-width="0.3"><path d="
M 35.00 3.00 
C 35.17 3.24 36.00 3.00 36.00 3.00
C 36.52 3.36 33.77 1.40 35.00 3.00 Z"/>
</g>
<g fill="None" fill-opacity="0.0" stroke="#292C33" stroke-opacity="0.10" stroke-width="0.3"><path d="
M 4.00 20.00 
C 5.89 16.14 8.36 11.52 11.00 8.00
C 12.24 6.35 13.35 5.15 15.00 4.00
C 15.00 4.00 14.84 3.06 15.00 3.00
C 8.33 6.12 3.72 12.58 4.00 20.00 Z"/>
</g>
<g fill="None" fill-opacity="0.0" stroke="#13121B" stroke-opacity="0.94" stroke-width="0.3"><path d="
M 39.00 31.00 
C 38.04 32.34 37.31 33.09 36.00 34.00
C 35.39 34.42 34.65 34.59 34.00 35.00
C 32.02 38.05 29.49 41.59 28.00 45.00
C 29.19 44.15 30.89 43.99 32.00 43.00
C 32.09 42.65 32.65 42.03 33.00 42.00
C 33.50 41.95 34.00 42.00 34.00 42.00
C 35.12 40.96 35.49 41.42 37.00 41.00
C 38.70 40.53 40.90 39.39 43.00 39.00
C 43.48 38.91 44.00 39.00 44.00 39.00
C 44.06 38.92 44.85 37.24 45.00 37.00
C 47.56 30.48 45.69 24.17 45.00 17.00
C 44.47 11.49 42.61 5.75 37.00 3.00
C 38.23 4.60 35.48 2.64 36.00 3.00
C 36.00 3.00 35.17 3.24 35.00 3.00
C 40.78 11.00 45.44 21.97 39.00 31.00
M 42.00 8.00 
C 42.74 8.74 41.18 7.18 42.00 8.00
M 44.00 12.00 
C 44.74 12.74 43.18 11.18 44.00 12.00 Z"/>
</g>
<g fill="None" fill-opacity="0.0" stroke="#13151B" stroke-opacity="0.58" stroke-width="0.3"><path d="
M 37.00 3.00 
C 37.00 3.00 36.34 3.24 36.00 3.00
C 35.48 2.64 38.23 4.60 37.00 3.00 Z"/>
</g>
<g fill="None" fill-opacity="0.0" stroke="#191E2E" stroke-opacity="0.57" stroke-width="0.3"><path d="
M 11.00 8.00 
C 12.21 6.62 14.08 5.89 15.00 4.00
C 13.35 5.15 12.24 6.35 11.00 8.00 Z"/>
</g>
<g fill="None" fill-opacity="0.0" stroke="#443840" stroke-opacity="1.00" stroke-width="0.3"><path d="
M 24.00 21.00 
C 24.12 20.87 26.81 20.90 27.00 21.00
C 26.75 19.47 24.45 18.82 25.00 17.00
C 29.30 16.82 30.46 16.84 34.00 20.00
C 35.74 14.66 38.38 10.48 35.00 5.00
C 33.01 6.79 29.57 8.55 29.00 11.00
C 25.31 8.54 18.96 12.08 17.00 7.00
C 12.77 14.49 22.88 16.80 24.00 21.00
M 35.00 8.00 
C 34.41 15.68 24.26 19.62 19.00 14.00
C 24.44 11.55 29.81 11.38 35.00 8.00 Z"/>
</g>
<g fill="None" fill-opacity="0.0" stroke="#6A535D" stroke-opacity="1.00" stroke-width="0.3"><path d="
M 35.00 8.00 
C 29.81 11.38 24.44 11.55 19.00 14.00
C 24.26 19.62 34.41 15.68 35.00 8.00 Z"/>
</g>
<g fill="None" fill-opacity="0.0" stroke="#1B212B" stroke-opacity="0.60" stroke-width="0.3"><path d="
M 42.00 8.00 
C 41.18 7.18 42.74 8.74 42.00 8.00 Z"/>
</g>
<g fill="None" fill-opacity="0.0" stroke="#1D2534" stroke-opacity="0.68" stroke-width="0.3"><path d="
M 44.00 12.00 
C 43.18 11.18 44.74 12.74 44.00 12.00 Z"/>
</g>
<g fill="None" fill-opacity="0.0" stroke="#2B323E" stroke-opacity="0.40" stroke-width="0.3"><path d="
M 45.00 37.00 
C 44.83 37.43 45.23 38.84 45.00 39.00
C 45.79 38.23 47.06 37.53 48.00 37.00
L 48.00 28.00
C 47.71 24.69 45.82 19.90 45.00 17.00
C 45.69 24.17 47.56 30.48 45.00 37.00 Z"/>
</g>
<g fill="None" fill-opacity="0.0" stroke="#83605F" stroke-opacity="1.00" stroke-width="0.3"><path d="
M 14.00 19.00 
C 13.23 18.23 15.79 20.79 14.00 19.00 Z"/>
</g>
<g fill="None" fill-opacity="0.0" stroke="#C19E9E" stroke-opacity="1.00" stroke-width="0.3"><path d="
M 24.00 22.00 
C 24.10 22.54 24.76 23.50 25.00 24.00
C 25.48 25.00 25.63 24.53 25.00 26.00
C 27.53 25.16 28.77 27.12 28.00 24.00
C 27.43 23.04 27.41 21.92 27.00 21.00
C 26.81 20.90 24.12 20.87 24.00 21.00
C 24.00 21.00 23.91 21.52 24.00 22.00 Z"/>
</g>
<g fill="None" fill-opacity="0.0" stroke="#0C1222" stroke-opacity="0.44" stroke-width="0.3"><path d="
M 3.00 24.00 
C 3.11 24.26 3.74 24.88 4.00 25.00
C 4.41 25.19 5.00 25.00 5.00 25.00
C 4.89 23.67 4.22 22.83 4.00 22.00
C 4.07 21.73 2.92 24.15 3.00 24.00 Z"/>
</g>
<g fill="None" fill-opacity="0.0" stroke="#785152" stroke-opacity="1.00" stroke-width="0.3"><path d="
M 14.00 22.00 
C 12.34 20.34 14.61 22.61 14.00 22.00 Z"/>
</g>
<g fill="None" fill-opacity="0.0" stroke="#6A4748" stroke-opacity="1.00" stroke-width="0.3"><path d="
M 15.00 25.00 
C 15.26 25.11 15.88 25.74 16.00 26.00
C 17.57 26.29 21.51 26.53 23.00 26.00
C 23.33 25.88 24.95 24.59 25.00 24.00
C 24.76 23.50 24.10 22.54 24.00 22.00
C 22.53 22.27 23.11 24.00 23.00 25.00
C 20.17 24.23 17.05 24.88 15.00 25.00 Z"/>
</g>
<g fill="None" fill-opacity="0.0" stroke="#21232B" stroke-opacity="0.23" stroke-width="0.3"><path d="
M 0.00 29.00 
L 0.00 37.00
C 1.76 39.40 0.59 43.48 3.00 46.00
C 5.71 43.02 7.43 46.56 11.00 47.00
C 10.59 46.17 10.03 45.13 9.00 45.00
C 8.71 45.06 8.09 44.35 8.00 44.00
C 6.77 42.71 6.51 41.76 6.00 40.00
C 4.78 37.76 2.54 35.00 1.00 33.00
C 4.34 31.27 2.63 27.71 4.00 25.00
C 3.74 24.88 3.11 24.26 3.00 24.00
C 2.25 25.47 0.63 27.47 0.00 29.00 Z"/>
</g>
<g fill="None" fill-opacity="0.0" stroke="#9A6569" stroke-opacity="1.00" stroke-width="0.3"><path d="
M 23.00 26.00 
C 23.19 26.11 23.25 29.17 25.00 28.00
C 24.76 27.80 25.00 27.00 25.00 27.00
C 24.05 25.65 24.49 27.18 25.00 26.00
C 25.63 24.53 25.48 25.00 25.00 24.00
C 24.95 24.59 23.33 25.88 23.00 26.00 Z"/>
</g>
<g fill="None" fill-opacity="0.0" stroke="#704043" stroke-opacity="1.00" stroke-width="0.3"><path d="
M 25.00 26.00 
C 24.49 27.18 24.05 25.65 25.00 27.00
C 25.16 26.77 26.57 26.83 27.00 27.00
C 28.00 27.00 29.00 27.00 30.00 27.00
C 30.83 25.22 28.53 24.89 28.00 24.00
C 28.77 27.12 27.53 25.16 25.00 26.00 Z"/>
</g>
<g fill="None" fill-opacity="0.0" stroke="#0F1427" stroke-opacity="0.79" stroke-width="0.3"><path d="
M 6.00 40.00 
C 4.59 35.10 5.44 30.17 5.00 25.00
C 5.00 25.00 4.41 25.19 4.00 25.00
C 2.63 27.71 4.34 31.27 1.00 33.00
C 2.54 35.00 4.78 37.76 6.00 40.00 Z"/>
</g>
<g fill="None" fill-opacity="0.0" stroke="#6C3F47" stroke-opacity="1.00" stroke-width="0.3"><path d="
M 10.00 32.00 
C 10.07 32.35 10.91 32.75 11.00 33.00
C 11.33 29.61 12.91 27.81 12.00 25.00
C 11.50 25.00 10.14 24.78 10.00 25.00
C 9.74 26.99 9.64 30.03 10.00 32.00 Z"/>
</g>
<g fill="None" fill-opacity="0.0" stroke="#C3868A" stroke-opacity="0.99" stroke-width="0.3"><path d="
M 11.00 33.00 
C 11.81 35.26 12.70 36.92 14.00 39.00
C 14.28 39.45 14.68 40.68 15.00 41.00
C 15.41 41.41 16.43 41.90 17.00 42.00
C 14.45 38.92 22.00 39.82 19.00 37.00
C 16.33 41.04 16.22 37.22 16.00 36.00
C 15.36 32.46 16.76 32.02 12.00 34.00
C 11.66 31.40 11.95 29.35 14.00 28.00
C 14.08 27.57 13.09 26.51 13.00 26.00
C 12.91 25.52 13.00 25.00 13.00 25.00
C 13.00 25.00 12.50 25.00 12.00 25.00
C 12.91 27.81 11.33 29.61 11.00 33.00 Z"/>
</g>
<g fill="None" fill-opacity="0.0" stroke="#3C5166" stroke-opacity="1.00" stroke-width="0.3"><path d="
M 13.00 26.00 
C 13.30 26.54 15.45 27.33 16.00 27.00
C 16.05 26.50 16.00 26.00 16.00 26.00
C 15.88 25.74 15.26 25.11 15.00 25.00
C 14.50 25.03 13.50 25.00 13.00 25.00
C 13.00 25.00 12.91 25.52 13.00 26.00 Z"/>
</g>
<g fill="None" fill-opacity="0.0" stroke="#8D97AD" stroke-opacity="1.00" stroke-width="0.3"><path d="
M 14.00 28.00 
C 14.72 28.27 15.92 27.89 16.00 27.00
C 15.45 27.33 13.30 26.54 13.00 26.00
C 13.09 26.51 14.08 27.57 14.00 28.00 Z"/>
</g>
<g fill="None" fill-opacity="0.0" stroke="#F7CAC7" stroke-opacity="1.00" stroke-width="0.3"><path d="
M 16.00 27.00 
C 15.92 27.89 14.72 28.27 14.00 28.00
C 11.95 29.35 11.66 31.40 12.00 34.00
C 16.76 32.02 15.36 32.46 16.00 36.00
C 16.22 36.27 18.51 36.54 19.00 37.00
C 22.00 39.82 14.45 38.92 17.00 42.00
C 17.48 42.09 18.00 42.00 18.00 42.00
C 21.15 41.88 24.28 40.57 27.00 39.00
C 26.25 38.17 30.10 32.52 29.00 31.00
C 28.00 30.89 26.27 31.47 26.00 30.00
C 25.49 29.75 25.33 28.33 25.00 28.00
C 23.25 29.17 23.19 26.11 23.00 26.00
C 21.51 26.53 17.57 26.29 16.00 26.00
C 16.00 26.00 16.05 26.50 16.00 27.00 Z"/>
</g>
<g fill="None" fill-opacity="0.0" stroke="#264258" stroke-opacity="1.00" stroke-width="0.3"><path d="
M 25.00 28.00 
C 25.10 28.08 26.74 28.83 27.00 29.00
C 27.25 28.75 28.00 29.00 28.00 29.00
C 28.17 28.84 27.13 27.05 27.00 27.00
C 26.57 26.83 25.16 26.77 25.00 27.00
C 25.00 27.00 24.76 27.80 25.00 28.00 Z"/>
</g>
<g fill="None" fill-opacity="0.0" stroke="#C48983" stroke-opacity="1.00" stroke-width="0.3"><path d="
M 35.00 31.00 
C 34.99 31.36 35.84 34.54 36.00 34.00
C 37.31 33.09 38.04 32.34 39.00 31.00
C 39.00 29.67 39.00 28.33 39.00 27.00
C 35.67 26.62 35.78 29.06 35.00 31.00 Z"/>
</g>
<g fill="None" fill-opacity="0.0" stroke="#6186BC" stroke-opacity="1.00" stroke-width="0.3"><path d="
M 26.00 30.00 
C 26.40 30.20 27.00 30.00 27.00 30.00
C 27.25 29.75 27.00 29.00 27.00 29.00
C 26.74 28.83 25.10 28.08 25.00 28.00
C 25.33 28.33 25.49 29.75 26.00 30.00 Z"/>
</g>
<g fill="None" fill-opacity="0.0" stroke="#886A84" stroke-opacity="1.00" stroke-width="0.3"><path d="
M 27.00 30.00 
C 27.35 29.97 28.03 29.02 28.00 29.00
C 28.00 29.00 27.25 28.75 27.00 29.00
C 27.00 29.00 27.25 29.75 27.00 30.00 Z"/>
</g>
<g fill="None" fill-opacity="0.0" stroke="#C07A78" stroke-opacity="1.00" stroke-width="0.3"><path d="
M 27.00 30.00 
C 27.00 30.00 26.40 30.20 26.00 30.00
C 26.27 31.47 28.00 30.89 29.00 31.00
C 30.10 32.52 26.25 38.17 27.00 39.00
C 27.27 38.85 28.90 38.15 29.00 38.00
C 29.92 33.91 30.59 31.46 28.00 29.00
C 28.03 29.02 27.35 29.97 27.00 30.00 Z"/>
</g>
<g fill="None" fill-opacity="0.0" stroke="#7E5D5E" stroke-opacity="1.00" stroke-width="0.3"><path d="
M 34.00 35.00 
C 34.65 34.59 35.39 34.42 36.00 34.00
C 35.84 34.54 34.99 31.36 35.00 31.00
C 34.52 32.19 34.45 33.54 34.00 35.00 Z"/>
</g>
<g fill="None" fill-opacity="0.0" stroke="#3C435A" stroke-opacity="0.93" stroke-width="0.3"><path d="
M 8.00 38.00 
C 7.94 37.69 9.04 40.06 9.00 40.00
C 10.27 40.95 11.30 38.28 12.00 42.00
C 12.47 42.12 13.00 42.00 13.00 42.00
C 13.05 41.86 14.00 38.68 14.00 39.00
C 12.70 36.92 11.81 35.26 11.00 33.00
C 10.91 32.75 10.07 32.35 10.00 32.00
C 9.71 33.70 8.15 35.71 8.00 38.00 Z"/>
</g>
<g fill="None" fill-opacity="0.0" stroke="#702931" stroke-opacity="1.00" stroke-width="0.3"><path d="
M 19.00 37.00 
C 18.51 36.54 16.22 36.27 16.00 36.00
C 16.22 37.22 16.33 41.04 19.00 37.00 Z"/>
</g>
<g fill="None" fill-opacity="0.0" stroke="#000000" stroke-opacity="0.01" stroke-width="0.3"><path d="
M 0.00 48.00 
L 23.00 48.00
C 23.00 47.50 23.00 47.00 23.00 47.00
C 22.88 46.74 22.26 46.12 22.00 46.00
C 21.74 46.25 21.00 46.00 21.00 46.00
C 20.65 45.97 20.26 45.12 20.00 45.00
C 19.50 44.95 19.00 45.00 19.00 45.00
C 16.72 44.55 12.30 42.87 10.00 44.00
C 9.88 44.26 9.22 44.96 9.00 45.00
C 10.03 45.13 10.59 46.17 11.00 47.00
C 7.43 46.56 5.71 43.02 3.00 46.00
C 0.59 43.48 1.76 39.40 0.00 37.00
L 0.00 48.00 Z"/>
</g>
<g fill="None" fill-opacity="0.0" stroke="#29303F" stroke-opacity="0.58" stroke-width="0.3"><path d="
M 44.00 39.00 
C 44.25 38.75 45.00 39.00 45.00 39.00
C 45.23 38.84 44.83 37.43 45.00 37.00
C 44.85 37.24 44.06 38.92 44.00 39.00 Z"/>
</g>
<g fill="None" fill-opacity="0.0" stroke="#000000" stroke-opacity="0.01" stroke-width="0.3"><path d="
M 45.00 39.00 
C 44.75 39.25 44.24 39.74 44.00 40.00
C 42.67 41.45 42.32 42.00 40.00 42.00
C 39.50 42.00 38.50 42.00 38.00 42.00
C 36.31 42.01 36.10 41.98 35.00 43.00
C 35.09 44.89 33.52 46.22 32.00 47.00
C 31.88 47.26 31.17 47.67 31.00 48.00
L 48.00 48.00
L 48.00 37.00
C 47.06 37.53 45.79 38.23 45.00 39.00 Z"/>
</g>
<g fill="None" fill-opacity="0.0" stroke="#47454E" stroke-opacity="0.22" stroke-width="0.3"><path d="
M 8.00 42.00 
C 8.34 41.77 9.00 42.00 9.00 42.00
C 10.50 42.01 10.87 42.08 10.00 43.00
C 10.19 43.41 10.00 44.00 10.00 44.00
C 12.30 42.87 16.72 44.55 19.00 45.00
C 18.75 44.75 19.00 44.00 19.00 44.00
C 18.88 43.74 18.03 43.35 18.00 43.00
C 17.95 42.50 18.00 42.00 18.00 42.00
C 18.00 42.00 17.48 42.09 17.00 42.00
C 16.43 41.90 15.41 41.41 15.00 41.00
C 15.01 42.02 13.71 42.73 13.00 42.00
C 13.00 42.00 12.47 42.12 12.00 42.00
C 10.90 41.73 9.52 40.93 9.00 40.00
C 9.04 40.06 7.94 37.69 8.00 38.00
C 7.91 39.32 8.00 40.68 8.00 42.00 Z"/>
</g>
<g fill="None" fill-opacity="0.0" stroke="#865B60" stroke-opacity="0.92" stroke-width="0.3"><path d="
M 27.00 39.00 
C 24.28 40.57 21.15 41.88 18.00 42.00
C 18.00 42.00 17.95 42.50 18.00 43.00
C 19.17 43.51 20.14 42.79 19.00 44.00
C 19.00 44.00 18.75 44.75 19.00 45.00
C 19.00 45.00 19.50 44.95 20.00 45.00
C 20.35 45.03 20.74 45.88 21.00 46.00
C 21.00 46.00 21.74 46.25 22.00 46.00
C 23.43 44.62 24.03 45.94 26.00 46.00
C 27.70 43.48 28.36 40.85 29.00 38.00
C 28.90 38.15 27.27 38.85 27.00 39.00 Z"/>
</g>
<g fill="None" fill-opacity="0.0" stroke="#3A4153" stroke-opacity="0.44" stroke-width="0.3"><path d="
M 9.00 40.00 
C 9.52 40.93 10.90 41.73 12.00 42.00
C 11.30 38.28 10.27 40.95 9.00 40.00 Z"/>
</g>
<g fill="None" fill-opacity="0.0" stroke="#525463" stroke-opacity="0.61" stroke-width="0.3"><path d="
M 13.00 42.00 
C 13.71 42.73 15.01 42.02 15.00 41.00
C 14.68 40.68 14.28 39.45 14.00 39.00
C 14.00 38.68 13.05 41.86 13.00 42.00 Z"/>
</g>
<g fill="None" fill-opacity="0.0" stroke="#171B26" stroke-opacity="0.68" stroke-width="0.3"><path d="
M 37.00 41.00 
C 37.35 41.11 37.74 41.89 38.00 42.00
C 38.50 42.00 39.50 42.00 40.00 42.00
C 40.94 41.53 42.07 39.55 43.00 39.00
C 40.90 39.39 38.70 40.53 37.00 41.00 Z"/>
</g>
<g fill="None" fill-opacity="0.0" stroke="#2A2A33" stroke-opacity="0.28" stroke-width="0.3"><path d="
M 40.00 42.00 
C 42.32 42.00 42.67 41.45 44.00 40.00
C 44.15 39.55 44.00 39.00 44.00 39.00
C 44.00 39.00 43.48 38.91 43.00 39.00
C 42.07 39.55 40.94 41.53 40.00 42.00 Z"/>
</g>
<g fill="None" fill-opacity="0.0" stroke="#404050" stroke-opacity="0.06" stroke-width="0.3"><path d="
M 44.00 40.00 
C 44.24 39.74 44.75 39.25 45.00 39.00
C 45.00 39.00 44.25 38.75 44.00 39.00
C 44.00 39.00 44.15 39.55 44.00 40.00 Z"/>
</g>
<g fill="None" fill-opacity="0.0" stroke="#09101F" stroke-opacity="0.50" stroke-width="0.3"><path d="
M 34.00 42.00 
C 34.25 42.25 34.00 43.00 34.00 43.00
C 34.25 43.25 35.00 43.00 35.00 43.00
C 36.10 41.98 36.31 42.01 38.00 42.00
C 37.74 41.89 37.35 41.11 37.00 41.00
C 35.49 41.42 35.12 40.96 34.00 42.00 Z"/>
</g>
<g fill="None" fill-opacity="0.0" stroke="#15131C" stroke-opacity="0.68" stroke-width="0.3"><path d="
M 8.00 44.00 
C 8.09 44.35 8.71 45.06 9.00 45.00
C 9.22 44.96 9.88 44.26 10.00 44.00
C 10.00 44.00 10.19 43.41 10.00 43.00
C 9.88 42.74 9.26 42.12 9.00 42.00
C 9.00 42.00 8.34 41.77 8.00 42.00
C 8.00 42.50 7.88 43.53 8.00 44.00 Z"/>
</g>
<g fill="None" fill-opacity="0.0" stroke="#040404" stroke-opacity="0.06" stroke-width="0.3"><path d="
M 10.00 43.00 
C 10.87 42.08 10.50 42.01 9.00 42.00
C 9.26 42.12 9.88 42.74 10.00 43.00 Z"/>
</g>
<g fill="None" fill-opacity="0.0" stroke="#8E6464" stroke-opacity="0.91" stroke-width="0.3"><path d="
M 32.00 43.00 
C 31.88 43.47 32.22 44.64 32.00 45.00
C 32.55 45.91 33.04 41.87 33.00 42.00
C 32.65 42.03 32.09 42.65 32.00 43.00 Z"/>
</g>
<g fill="None" fill-opacity="0.0" stroke="#5E4141" stroke-opacity="0.65" stroke-width="0.3"><path d="
M 32.00 45.00 
C 31.09 46.48 27.43 46.05 26.00 46.00
C 24.03 45.94 23.43 44.62 22.00 46.00
C 22.26 46.12 22.88 46.74 23.00 47.00
C 25.91 47.42 29.47 47.29 32.00 46.00
C 33.32 45.21 34.05 44.70 34.00 43.00
C 34.00 43.00 34.25 42.25 34.00 42.00
C 34.00 42.00 33.50 41.95 33.00 42.00
C 33.04 41.87 32.55 45.91 32.00 45.00 Z"/>
</g>
<g fill="None" fill-opacity="0.0" stroke="#646C7D" stroke-opacity="0.75" stroke-width="0.3"><path d="
M 19.00 44.00 
C 20.14 42.79 19.17 43.51 18.00 43.00
C 18.03 43.35 18.88 43.74 19.00 44.00 Z"/>
</g>
<g fill="None" fill-opacity="0.0" stroke="#453635" stroke-opacity="0.16" stroke-width="0.3"><path d="
M 32.00 46.00 
C 31.78 46.13 32.00 47.00 32.00 47.00
C 33.52 46.22 35.09 44.89 35.00 43.00
C 35.00 43.00 34.25 43.25 34.00 43.00
C 34.05 44.70 33.32 45.21 32.00 46.00 Z"/>
</g>
<g fill="None" fill-opacity="0.0" stroke="#464646" stroke-opacity="0.04" stroke-width="0.3"><path d="
M 21.00 46.00 
C 20.74 45.88 20.35 45.03 20.00 45.00
C 20.26 45.12 20.65 45.97 21.00 46.00 Z"/>
</g>
<g fill="None" fill-opacity="0.0" stroke="#392827" stroke-opacity="0.35" stroke-width="0.3"><path d="
M 23.00 47.00 
C 23.00 47.00 23.00 47.50 23.00 48.00
L 31.00 48.00
C 31.17 47.67 31.88 47.26 32.00 47.00
C 32.00 47.00 31.78 46.13 32.00 46.00
C 29.47 47.29 25.91 47.42 23.00 47.00 Z"/>
</g>
<g fill="#000000" fill-opacity="0.00" stroke="None">
<path d="
M 0.00 29.00 
C 0.63 27.47 2.25 25.47 3.00 24.00
C 2.92 24.15 4.07 21.73 4.00 22.00
C 3.88 21.53 4.02 20.50 4.00 20.00
C 3.72 12.58 8.33 6.12 15.00 3.00
C 17.28 2.14 20.27 1.58 22.00 0.00
L 0.00 0.00
L 0.00 29.00 Z"/>
</g>
<g fill="#0E0C16" fill-opacity="0.95" stroke="None">
<path d="
M 15.00 3.00 
C 14.84 3.06 15.00 4.00 15.00 4.00
C 14.08 5.89 12.21 6.62 11.00 8.00
C 8.36 11.52 5.89 16.14 4.00 20.00
C 4.02 20.50 3.88 21.53 4.00 22.00
C 4.22 22.83 4.89 23.67 5.00 25.00
C 5.44 30.17 4.59 35.10 6.00 40.00
C 6.51 41.76 6.77 42.71 8.00 44.00
C 7.88 43.53 8.00 42.50 8.00 42.00
C 8.00 40.68 7.91 39.32 8.00 38.00
C 8.15 35.71 9.71 33.70 10.00 32.00
C 9.64 30.03 9.74 26.99 10.00 25.00
C 10.65 20.08 13.36 17.52 17.00 19.00
C 14.80 13.72 13.38 8.89 17.00 4.00
C 20.46 8.48 23.55 -0.71 30.00 0.00
L 22.00 0.00
C 20.27 1.58 17.28 2.14 15.00 3.00 Z"/>
</g>
<g fill="#261D23" fill-opacity="1.00" stroke="None">
<path d="
M 10.00 25.00 
C 10.14 24.78 11.50 25.00 12.00 25.00
C 12.50 25.00 13.00 25.00 13.00 25.00
C 13.50 25.00 14.50 25.03 15.00 25.00
C 17.05 24.88 20.17 24.23 23.00 25.00
C 23.11 24.00 22.53 22.27 24.00 22.00
C 23.91 21.52 24.00 21.00 24.00 21.00
C 22.88 16.80 12.77 14.49 17.00 7.00
C 18.96 12.08 25.31 8.54 29.00 11.00
C 29.57 8.55 33.01 6.79 35.00 5.00
C 38.38 10.48 35.74 14.66 34.00 20.00
C 30.46 16.84 29.30 16.82 25.00 17.00
C 24.45 18.82 26.75 19.47 27.00 21.00
C 27.41 21.92 27.43 23.04 28.00 24.00
C 28.53 24.89 30.83 25.22 30.00 27.00
C 29.00 27.00 28.00 27.00 27.00 27.00
C 27.13 27.05 28.17 28.84 28.00 29.00
C 30.59 31.46 29.92 33.91 29.00 38.00
C 28.36 40.85 27.70 43.48 26.00 46.00
C 27.43 46.05 31.09 46.48 32.00 45.00
C 32.22 44.64 31.88 43.47 32.00 43.00
C 30.89 43.99 29.19 44.15 28.00 45.00
C 29.49 41.59 32.02 38.05 34.00 35.00
C 34.45 33.54 34.52 32.19 35.00 31.00
C 35.78 29.06 35.67 26.62 39.00 27.00
C 39.00 28.33 39.00 29.67 39.00 31.00
C 45.44 21.97 40.78 11.00 35.00 3.00
C 33.23 2.99 31.63 1.63 31.00 0.00
L 30.00 0.00
C 23.55 -0.71 20.46 8.48 17.00 4.00
C 13.38 8.89 14.80 13.72 17.00 19.00
C 13.36 17.52 10.65 20.08 10.00 25.00
M 14.00 19.00 
C 15.79 20.79 13.23 18.23 14.00 19.00
M 14.00 22.00 
C 14.61 22.61 12.34 20.34 14.00 22.00 Z"/>
</g>
<g fill="#000000" fill-opacity="0.02" stroke="None">
<path d="
M 35.00 3.00 
C 33.77 1.40 36.52 3.36 36.00 3.00
C 36.34 3.24 37.00 3.00 37.00 3.00
C 42.61 5.75 44.47 11.49 45.00 17.00
C 45.82 19.90 47.71 24.69 48.00 28.00
L 48.00 0.00
L 31.00 0.00
C 31.63 1.63 33.23 2.99 35.00 3.00 Z"/>
</g>
<g fill="#1A1E1E" fill-opacity="0.24" stroke="None">
<path d="
M 35.00 3.00 
C 35.17 3.24 36.00 3.00 36.00 3.00
C 36.52 3.36 33.77 1.40 35.00 3.00 Z"/>
</g>
<g fill="#292C33" fill-opacity="0.10" stroke="None">
<path d="
M 4.00 20.00 
C 5.89 16.14 8.36 11.52 11.00 8.00
C 12.24 6.35 13.35 5.15 15.00 4.00
C 15.00 4.00 14.84 3.06 15.00 3.00
C 8.33 6.12 3.72 12.58 4.00 20.00 Z"/>
</g>
<g fill="#13121B" fill-opacity="0.94" stroke="None">
<path d="
M 39.00 31.00 
C 38.04 32.34 37.31 33.09 36.00 34.00
C 35.39 34.42 34.65 34.59 34.00 35.00
C 32.02 38.05 29.49 41.59 28.00 45.00
C 29.19 44.15 30.89 43.99 32.00 43.00
C 32.09 42.65 32.65 42.03 33.00 42.00
C 33.50 41.95 34.00 42.00 34.00 42.00
C 35.12 40.96 35.49 41.42 37.00 41.00
C 38.70 40.53 40.90 39.39 43.00 39.00
C 43.48 38.91 44.00 39.00 44.00 39.00
C 44.06 38.92 44.85 37.24 45.00 37.00
C 47.56 30.48 45.69 24.17 45.00 17.00
C 44.47 11.49 42.61 5.75 37.00 3.00
C 38.23 4.60 35.48 2.64 36.00 3.00
C 36.00 3.00 35.17 3.24 35.00 3.00
C 40.78 11.00 45.44 21.97 39.00 31.00
M 42.00 8.00 
C 42.74 8.74 41.18 7.18 42.00 8.00
M 44.00 12.00 
C 44.74 12.74 43.18 11.18 44.00 12.00 Z"/>
</g>
<g fill="#13151B" fill-opacity="0.58" stroke="None">
<path d="
M 37.00 3.00 
C 37.00 3.00 36.34 3.24 36.00 3.00
C 35.48 2.64 38.23 4.60 37.00 3.00 Z"/>
</g>
<g fill="#191E2E" fill-opacity="0.57" stroke="None">
<path d="
M 11.00 8.00 
C 12.21 6.62 14.08 5.89 15.00 4.00
C 13.35 5.15 12.24 6.35 11.00 8.00 Z"/>
</g>
<g fill="#443840" fill-opacity="1.00" stroke="None">
<path d="
M 24.00 21.00 
C 24.12 20.87 26.81 20.90 27.00 21.00
C 26.75 19.47 24.45 18.82 25.00 17.00
C 29.30 16.82 30.46 16.84 34.00 20.00
C 35.74 14.66 38.38 10.48 35.00 5.00
C 33.01 6.79 29.57 8.55 29.00 11.00
C 25.31 8.54 18.96 12.08 17.00 7.00
C 12.77 14.49 22.88 16.80 24.00 21.00
M 35.00 8.00 
C 34.41 15.68 24.26 19.62 19.00 14.00
C 24.44 11.55 29.81 11.38 35.00 8.00 Z"/>
</g>
<g fill="#6A535D" fill-opacity="1.00" stroke="None">
<path d="
M 35.00 8.00 
C 29.81 11.38 24.44 11.55 19.00 14.00
C 24.26 19.62 34.41 15.68 35.00 8.00 Z"/>
</g>
<g fill="#1B212B" fill-opacity="0.60" stroke="None">
<path d="
M 42.00 8.00 
C 41.18 7.18 42.74 8.74 42.00 8.00 Z"/>
</g>
<g fill="#1D2534" fill-opacity="0.68" stroke="None">
<path d="
M 44.00 12.00 
C 43.18 11.18 44.74 12.74 44.00 12.00 Z"/>
</g>
<g fill="#2B323E" fill-opacity="0.40" stroke="None">
<path d="
M 45.00 37.00 
C 44.83 37.43 45.23 38.84 45.00 39.00
C 45.79 38.23 47.06 37.53 48.00 37.00
L 48.00 28.00
C 47.71 24.69 45.82 19.90 45.00 17.00
C 45.69 24.17 47.56 30.48 45.00 37.00 Z"/>
</g>
<g fill="#83605F" fill-opacity="1.00" stroke="None">
<path d="
M 14.00 19.00 
C 13.23 18.23 15.79 20.79 14.00 19.00 Z"/>
</g>
<g fill="#C19E9E" fill-opacity="1.00" stroke="None">
<path d="
M 24.00 22.00 
C 24.10 22.54 24.76 23.50 25.00 24.00
C 25.48 25.00 25.63 24.53 25.00 26.00
C 27.53 25.16 28.77 27.12 28.00 24.00
C 27.43 23.04 27.41 21.92 27.00 21.00
C 26.81 20.90 24.12 20.87 24.00 21.00
C 24.00 21.00 23.91 21.52 24.00 22.00 Z"/>
</g>
<g fill="#0C1222" fill-opacity="0.44" stroke="None">
<path d="
M 3.00 24.00 
C 3.11 24.26 3.74 24.88 4.00 25.00
C 4.41 25.19 5.00 25.00 5.00 25.00
C 4.89 23.67 4.22 22.83 4.00 22.00
C 4.07 21.73 2.92 24.15 3.00 24.00 Z"/>
</g>
<g fill="#785152" fill-opacity="1.00" stroke="None">
<path d="
M 14.00 22.00 
C 12.34 20.34 14.61 22.61 14.00 22.00 Z"/>
</g>
<g fill="#6A4748" fill-opacity="1.00" stroke="None">
<path d="
M 15.00 25.00 
C 15.26 25.11 15.88 25.74 16.00 26.00
C 17.57 26.29 21.51 26.53 23.00 26.00
C 23.33 25.88 24.95 24.59 25.00 24.00
C 24.76 23.50 24.10 22.54 24.00 22.00
C 22.53 22.27 23.11 24.00 23.00 25.00
C 20.17 24.23 17.05 24.88 15.00 25.00 Z"/>
</g>
<g fill="#21232B" fill-opacity="0.23" stroke="None">
<path d="
M 0.00 29.00 
L 0.00 37.00
C 1.76 39.40 0.59 43.48 3.00 46.00
C 5.71 43.02 7.43 46.56 11.00 47.00
C 10.59 46.17 10.03 45.13 9.00 45.00
C 8.71 45.06 8.09 44.35 8.00 44.00
C 6.77 42.71 6.51 41.76 6.00 40.00
C 4.78 37.76 2.54 35.00 1.00 33.00
C 4.34 31.27 2.63 27.71 4.00 25.00
C 3.74 24.88 3.11 24.26 3.00 24.00
C 2.25 25.47 0.63 27.47 0.00 29.00 Z"/>
</g>
<g fill="#9A6569" fill-opacity="1.00" stroke="None">
<path d="
M 23.00 26.00 
C 23.19 26.11 23.25 29.17 25.00 28.00
C 24.76 27.80 25.00 27.00 25.00 27.00
C 24.05 25.65 24.49 27.18 25.00 26.00
C 25.63 24.53 25.48 25.00 25.00 24.00
C 24.95 24.59 23.33 25.88 23.00 26.00 Z"/>
</g>
<g fill="#704043" fill-opacity="1.00" stroke="None">
<path d="
M 25.00 26.00 
C 24.49 27.18 24.05 25.65 25.00 27.00
C 25.16 26.77 26.57 26.83 27.00 27.00
C 28.00 27.00 29.00 27.00 30.00 27.00
C 30.83 25.22 28.53 24.89 28.00 24.00
C 28.77 27.12 27.53 25.16 25.00 26.00 Z"/>
</g>
<g fill="#0F1427" fill-opacity="0.79" stroke="None">
<path d="
M 6.00 40.00 
C 4.59 35.10 5.44 30.17 5.00 25.00
C 5.00 25.00 4.41 25.19 4.00 25.00
C 2.63 27.71 4.34 31.27 1.00 33.00
C 2.54 35.00 4.78 37.76 6.00 40.00 Z"/>
</g>
<g fill="#6C3F47" fill-opacity="1.00" stroke="None">
<path d="
M 10.00 32.00 
C 10.07 32.35 10.91 32.75 11.00 33.00
C 11.33 29.61 12.91 27.81 12.00 25.00
C 11.50 25.00 10.14 24.78 10.00 25.00
C 9.74 26.99 9.64 30.03 10.00 32.00 Z"/>
</g>
<g fill="#C3868A" fill-opacity="0.99" stroke="None">
<path d="
M 11.00 33.00 
C 11.81 35.26 12.70 36.92 14.00 39.00
C 14.28 39.45 14.68 40.68 15.00 41.00
C 15.41 41.41 16.43 41.90 17.00 42.00
C 14.45 38.92 22.00 39.82 19.00 37.00
C 16.33 41.04 16.22 37.22 16.00 36.00
C 15.36 32.46 16.76 32.02 12.00 34.00
C 11.66 31.40 11.95 29.35 14.00 28.00
C 14.08 27.57 13.09 26.51 13.00 26.00
C 12.91 25.52 13.00 25.00 13.00 25.00
C 13.00 25.00 12.50 25.00 12.00 25.00
C 12.91 27.81 11.33 29.61 11.00 33.00 Z"/>
</g>
<g fill="#3C5166" fill-opacity="1.00" stroke="None">
<path d="
M 13.00 26.00 
C 13.30 26.54 15.45 27.33 16.00 27.00
C 16.05 26.50 16.00 26.00 16.00 26.00
C 15.88 25.74 15.26 25.11 15.00 25.00
C 14.50 25.03 13.50 25.00 13.00 25.00
C 13.00 25.00 12.91 25.52 13.00 26.00 Z"/>
</g>
<g fill="#8D97AD" fill-opacity="1.00" stroke="None">
<path d="
M 14.00 28.00 
C 14.72 28.27 15.92 27.89 16.00 27.00
C 15.45 27.33 13.30 26.54 13.00 26.00
C 13.09 26.51 14.08 27.57 14.00 28.00 Z"/>
</g>
<g fill="#F7CAC7" fill-opacity="1.00" stroke="None">
<path d="
M 16.00 27.00 
C 15.92 27.89 14.72 28.27 14.00 28.00
C 11.95 29.35 11.66 31.40 12.00 34.00
C 16.76 32.02 15.36 32.46 16.00 36.00
C 16.22 36.27 18.51 36.54 19.00 37.00
C 22.00 39.82 14.45 38.92 17.00 42.00
C 17.48 42.09 18.00 42.00 18.00 42.00
C 21.15 41.88 24.28 40.57 27.00 39.00
C 26.25 38.17 30.10 32.52 29.00 31.00
C 28.00 30.89 26.27 31.47 26.00 30.00
C 25.49 29.75 25.33 28.33 25.00 28.00
C 23.25 29.17 23.19 26.11 23.00 26.00
C 21.51 26.53 17.57 26.29 16.00 26.00
C 16.00 26.00 16.05 26.50 16.00 27.00 Z"/>
</g>
<g fill="#264258" fill-opacity="1.00" stroke="None">
<path d="
M 25.00 28.00 
C 25.10 28.08 26.74 28.83 27.00 29.00
C 27.25 28.75 28.00 29.00 28.00 29.00
C 28.17 28.84 27.13 27.05 27.00 27.00
C 26.57 26.83 25.16 26.77 25.00 27.00
C 25.00 27.00 24.76 27.80 25.00 28.00 Z"/>
</g>
<g fill="#C48983" fill-opacity="1.00" stroke="None">
<path d="
M 35.00 31.00 
C 34.99 31.36 35.84 34.54 36.00 34.00
C 37.31 33.09 38.04 32.34 39.00 31.00
C 39.00 29.67 39.00 28.33 39.00 27.00
C 35.67 26.62 35.78 29.06 35.00 31.00 Z"/>
</g>
<g fill="#6186BC" fill-opacity="1.00" stroke="None">
<path d="
M 26.00 30.00 
C 26.40 30.20 27.00 30.00 27.00 30.00
C 27.25 29.75 27.00 29.00 27.00 29.00
C 26.74 28.83 25.10 28.08 25.00 28.00
C 25.33 28.33 25.49 29.75 26.00 30.00 Z"/>
</g>
<g fill="#886A84" fill-opacity="1.00" stroke="None">
<path d="
M 27.00 30.00 
C 27.35 29.97 28.03 29.02 28.00 29.00
C 28.00 29.00 27.25 28.75 27.00 29.00
C 27.00 29.00 27.25 29.75 27.00 30.00 Z"/>
</g>
<g fill="#C07A78" fill-opacity="1.00" stroke="None">
<path d="
M 27.00 30.00 
C 27.00 30.00 26.40 30.20 26.00 30.00
C 26.27 31.47 28.00 30.89 29.00 31.00
C 30.10 32.52 26.25 38.17 27.00 39.00
C 27.27 38.85 28.90 38.15 29.00 38.00
C 29.92 33.91 30.59 31.46 28.00 29.00
C 28.03 29.02 27.35 29.97 27.00 30.00 Z"/>
</g>
<g fill="#7E5D5E" fill-opacity="1.00" stroke="None">
<path d="
M 34.00 35.00 
C 34.65 34.59 35.39 34.42 36.00 34.00
C 35.84 34.54 34.99 31.36 35.00 31.00
C 34.52 32.19 34.45 33.54 34.00 35.00 Z"/>
</g>
<g fill="#3C435A" fill-opacity="0.93" stroke="None">
<path d="
M 8.00 38.00 
C 7.94 37.69 9.04 40.06 9.00 40.00
C 10.27 40.95 11.30 38.28 12.00 42.00
C 12.47 42.12 13.00 42.00 13.00 42.00
C 13.05 41.86 14.00 38.68 14.00 39.00
C 12.70 36.92 11.81 35.26 11.00 33.00
C 10.91 32.75 10.07 32.35 10.00 32.00
C 9.71 33.70 8.15 35.71 8.00 38.00 Z"/>
</g>
<g fill="#702931" fill-opacity="1.00" stroke="None">
<path d="
M 19.00 37.00 
C 18.51 36.54 16.22 36.27 16.00 36.00
C 16.22 37.22 16.33 41.04 19.00 37.00 Z"/>
</g>
<g fill="#000000" fill-opacity="0.01" stroke="None">
<path d="
M 0.00 48.00 
L 23.00 48.00
C 23.00 47.50 23.00 47.00 23.00 47.00
C 22.88 46.74 22.26 46.12 22.00 46.00
C 21.74 46.25 21.00 46.00 21.00 46.00
C 20.65 45.97 20.26 45.12 20.00 45.00
C 19.50 44.95 19.00 45.00 19.00 45.00
C 16.72 44.55 12.30 42.87 10.00 44.00
C 9.88 44.26 9.22 44.96 9.00 45.00
C 10.03 45.13 10.59 46.17 11.00 47.00
C 7.43 46.56 5.71 43.02 3.00 46.00
C 0.59 43.48 1.76 39.40 0.00 37.00
L 0.00 48.00 Z"/>
</g>
<g fill="#29303F" fill-opacity="0.58" stroke="None">
<path d="
M 44.00 39.00 
C 44.25 38.75 45.00 39.00 45.00 39.00
C 45.23 38.84 44.83 37.43 45.00 37.00
C 44.85 37.24 44.06 38.92 44.00 39.00 Z"/>
</g>
<g fill="#000000" fill-opacity="0.01" stroke="None">
<path d="
M 45.00 39.00 
C 44.75 39.25 44.24 39.74 44.00 40.00
C 42.67 41.45 42.32 42.00 40.00 42.00
C 39.50 42.00 38.50 42.00 38.00 42.00
C 36.31 42.01 36.10 41.98 35.00 43.00
C 35.09 44.89 33.52 46.22 32.00 47.00
C 31.88 47.26 31.17 47.67 31.00 48.00
L 48.00 48.00
L 48.00 37.00
C 47.06 37.53 45.79 38.23 45.00 39.00 Z"/>
</g>
<g fill="#47454E" fill-opacity="0.22" stroke="None">
<path d="
M 8.00 42.00 
C 8.34 41.77 9.00 42.00 9.00 42.00
C 10.50 42.01 10.87 42.08 10.00 43.00
C 10.19 43.41 10.00 44.00 10.00 44.00
C 12.30 42.87 16.72 44.55 19.00 45.00
C 18.75 44.75 19.00 44.00 19.00 44.00
C 18.88 43.74 18.03 43.35 18.00 43.00
C 17.95 42.50 18.00 42.00 18.00 42.00
C 18.00 42.00 17.48 42.09 17.00 42.00
C 16.43 41.90 15.41 41.41 15.00 41.00
C 15.01 42.02 13.71 42.73 13.00 42.00
C 13.00 42.00 12.47 42.12 12.00 42.00
C 10.90 41.73 9.52 40.93 9.00 40.00
C 9.04 40.06 7.94 37.69 8.00 38.00
C 7.91 39.32 8.00 40.68 8.00 42.00 Z"/>
</g>
<g fill="#865B60" fill-opacity="0.92" stroke="None">
<path d="
M 27.00 39.00 
C 24.28 40.57 21.15 41.88 18.00 42.00
C 18.00 42.00 17.95 42.50 18.00 43.00
C 19.17 43.51 20.14 42.79 19.00 44.00
C 19.00 44.00 18.75 44.75 19.00 45.00
C 19.00 45.00 19.50 44.95 20.00 45.00
C 20.35 45.03 20.74 45.88 21.00 46.00
C 21.00 46.00 21.74 46.25 22.00 46.00
C 23.43 44.62 24.03 45.94 26.00 46.00
C 27.70 43.48 28.36 40.85 29.00 38.00
C 28.90 38.15 27.27 38.85 27.00 39.00 Z"/>
</g>
<g fill="#3A4153" fill-opacity="0.44" stroke="None">
<path d="
M 9.00 40.00 
C 9.52 40.93 10.90 41.73 12.00 42.00
C 11.30 38.28 10.27 40.95 9.00 40.00 Z"/>
</g>
<g fill="#525463" fill-opacity="0.61" stroke="None">
<path d="
M 13.00 42.00 
C 13.71 42.73 15.01 42.02 15.00 41.00
C 14.68 40.68 14.28 39.45 14.00 39.00
C 14.00 38.68 13.05 41.86 13.00 42.00 Z"/>
</g>
<g fill="#171B26" fill-opacity="0.68" stroke="None">
<path d="
M 37.00 41.00 
C 37.35 41.11 37.74 41.89 38.00 42.00
C 38.50 42.00 39.50 42.00 40.00 42.00
C 40.94 41.53 42.07 39.55 43.00 39.00
C 40.90 39.39 38.70 40.53 37.00 41.00 Z"/>
</g>
<g fill="#2A2A33" fill-opacity="0.28" stroke="None">
<path d="
M 40.00 42.00 
C 42.32 42.00 42.67 41.45 44.00 40.00
C 44.15 39.55 44.00 39.00 44.00 39.00
C 44.00 39.00 43.48 38.91 43.00 39.00
C 42.07 39.55 40.94 41.53 40.00 42.00 Z"/>
</g>
<g fill="#404050" fill-opacity="0.06" stroke="None">
<path d="
M 44.00 40.00 
C 44.24 39.74 44.75 39.25 45.00 39.00
C 45.00 39.00 44.25 38.75 44.00 39.00
C 44.00 39.00 44.15 39.55 44.00 40.00 Z"/>
</g>
<g fill="#09101F" fill-opacity="0.50" stroke="None">
<path d="
M 34.00 42.00 
C 34.25 42.25 34.00 43.00 34.00 43.00
C 34.25 43.25 35.00 43.00 35.00 43.00
C 36.10 41.98 36.31 42.01 38.00 42.00
C 37.74 41.89 37.35 41.11 37.00 41.00
C 35.49 41.42 35.12 40.96 34.00 42.00 Z"/>
</g>
<g fill="#15131C" fill-opacity="0.68" stroke="None">
<path d="
M 8.00 44.00 
C 8.09 44.35 8.71 45.06 9.00 45.00
C 9.22 44.96 9.88 44.26 10.00 44.00
C 10.00 44.00 10.19 43.41 10.00 43.00
C 9.88 42.74 9.26 42.12 9.00 42.00
C 9.00 42.00 8.34 41.77 8.00 42.00
C 8.00 42.50 7.88 43.53 8.00 44.00 Z"/>
</g>
<g fill="#040404" fill-opacity="0.06" stroke="None">
<path d="
M 10.00 43.00 
C 10.87 42.08 10.50 42.01 9.00 42.00
C 9.26 42.12 9.88 42.74 10.00 43.00 Z"/>
</g>
<g fill="#8E6464" fill-opacity="0.91" stroke="None">
<path d="
M 32.00 43.00 
C 31.88 43.47 32.22 44.64 32.00 45.00
C 32.55 45.91 33.04 41.87 33.00 42.00
C 32.65 42.03 32.09 42.65 32.00 43.00 Z"/>
</g>
<g fill="#5E4141" fill-opacity="0.65" stroke="None">
<path d="
M 32.00 45.00 
C 31.09 46.48 27.43 46.05 26.00 46.00
C 24.03 45.94 23.43 44.62 22.00 46.00
C 22.26 46.12 22.88 46.74 23.00 47.00
C 25.91 47.42 29.47 47.29 32.00 46.00
C 33.32 45.21 34.05 44.70 34.00 43.00
C 34.00 43.00 34.25 42.25 34.00 42.00
C 34.00 42.00 33.50 41.95 33.00 42.00
C 33.04 41.87 32.55 45.91 32.00 45.00 Z"/>
</g>
<g fill="#646C7D" fill-opacity="0.75" stroke="None">
<path d="
M 19.00 44.00 
C 20.14 42.79 19.17 43.51 18.00 43.00
C 18.03 43.35 18.88 43.74 19.00 44.00 Z"/>
</g>
<g fill="#453635" fill-opacity="0.16" stroke="None">
<path d="
M 32.00 46.00 
C 31.78 46.13 32.00 47.00 32.00 47.00
C 33.52 46.22 35.09 44.89 35.00 43.00
C 35.00 43.00 34.25 43.25 34.00 43.00
C 34.05 44.70 33.32 45.21 32.00 46.00 Z"/>
</g>
<g fill="#464646" fill-opacity="0.04" stroke="None">
<path d="
M 21.00 46.00 
C 20.74 45.88 20.35 45.03 20.00 45.00
C 20.26 45.12 20.65 45.97 21.00 46.00 Z"/>
</g>
<g fill="#392827" fill-opacity="0.35" stroke="None">
<path d="
M 23.00 47.00 
C 23.00 47.00 23.00 47.50 23.00 48.00
L 31.00 48.00
C 31.17 47.67 31.88 47.26 32.00 47.00
C 32.00 47.00 31.78 46.13 32.00 46.00
C 29.47 47.29 25.91 47.42 23.00 47.00 Z"/>
</g>
</svg>